<svg xmlns="http://www.w3.org/2000/svg" xmlns:xlink="http://www.w3.org/1999/xlink" width="500" zoomAndPan="magnify" viewBox="0 0 375 374.999991" height="500" preserveAspectRatio="xMidYMid meet" version="1.0"><defs><g/></defs><path fill="#39b54a" d="M 174.929688 182.8125 C 171.890625 175.851562 167.378906 162.296875 171.8125 147.824219 C 179.085938 124.082031 207.621094 107.054688 241.964844 109.261719 C 246.523438 138.230469 235.285156 165.367188 214.109375 177.472656 C 199.847656 185.628906 185.070312 184.679688 178.070312 183.707031 C 185.238281 178.300781 193.28125 171.351562 201.320312 162.558594 C 213.730469 148.984375 222.015625 135.511719 227.496094 124.761719 C 219.621094 135.703125 210.15625 147.519531 198.847656 159.59375 C 190.6875 168.304688 182.628906 176.015625 174.929688 182.8125 Z M 174.929688 182.8125 " fill-opacity="1" fill-rule="nonzero"/><path fill="#39b54a" d="M 165.773438 183.570312 C 160.414062 185.183594 150.101562 187.304688 139.875 182.851562 C 123.097656 175.546875 113.054688 153.371094 117.597656 128.617188 C 139.210938 127.773438 158.132812 138.246094 165.199219 154.65625 C 169.960938 165.710938 168.003906 176.363281 166.695312 181.363281 C 163.34375 175.699219 158.941406 169.265625 153.179688 162.675781 C 144.292969 152.507812 135.132812 145.339844 127.722656 140.445312 C 135.066406 147.097656 142.917969 154.976562 150.800781 164.21875 C 156.488281 170.890625 161.449219 177.398438 165.773438 183.570312 Z M 165.773438 183.570312 " fill-opacity="1" fill-rule="nonzero"/><g fill="#d15a11" fill-opacity="1"><g transform="translate(58.382847, 225.56731)"><g><path d="M 28.1875 1.65625 C 44.078125 1.65625 54.453125 -8.375 54.453125 -23.671875 C 54.453125 -38.953125 44.078125 -49 28.1875 -49 C 12.359375 -49 2 -38.953125 2 -23.671875 C 2 -8.375 12.359375 1.65625 28.1875 1.65625 Z M 28.1875 -8.109375 C 19.21875 -8.109375 13.359375 -14.296875 13.359375 -23.671875 C 13.359375 -33.109375 19.21875 -39.296875 28.1875 -39.296875 C 37.234375 -39.296875 43.078125 -33.109375 43.078125 -23.671875 C 43.078125 -14.296875 37.234375 -8.109375 28.1875 -8.109375 Z M 28.1875 -8.109375 "/></g></g></g><g fill="#d15a11" fill-opacity="1"><g transform="translate(113.352188, 225.56731)"><g><path d="M 21.9375 -35.109375 C 17.75 -35.109375 14.234375 -32.640625 12.359375 -28.515625 L 12.296875 -28.515625 L 10.765625 -34.046875 L 2.65625 -34.046875 L 2.65625 0 L 12.828125 0 L 12.828125 -18.546875 C 12.828125 -24.140625 15.15625 -27.453125 18.953125 -27.453125 C 21.875 -27.453125 23.796875 -25.0625 24.140625 -20.875 L 32.703125 -23.203125 C 31.90625 -30.78125 27.859375 -35.109375 21.9375 -35.109375 Z M 21.9375 -35.109375 "/></g></g></g><g fill="#d15a11" fill-opacity="1"><g transform="translate(145.589199, 225.56731)"><g><path d="M 17.625 15.296875 C 30.25 15.296875 38.421875 8.046875 38.421875 -3.328125 L 38.421875 -34.046875 L 29.84375 -34.046875 L 28.328125 -27.59375 L 28.25 -27.59375 C 26.0625 -32.046875 21.203125 -34.96875 16.15625 -34.96875 C 7.375 -34.96875 1.53125 -28.0625 1.53125 -17.484375 C 1.53125 -6.984375 7.453125 -0.140625 16.484375 -0.140625 C 21.140625 -0.140625 25.859375 -2.53125 28.1875 -6.375 L 28.25 -6.375 L 28.25 -3.65625 C 28.25 2.796875 23.734375 6.84375 16.75 6.84375 C 11.640625 6.84375 6.453125 4.71875 3.453125 1.390625 L -0.0625 8.96875 C 3.65625 12.765625 10.578125 15.296875 17.625 15.296875 Z M 20.140625 -8.375 C 15.09375 -8.375 11.640625 -12.03125 11.640625 -17.484375 C 11.640625 -23.0625 15.09375 -26.796875 20.140625 -26.796875 C 25.265625 -26.796875 28.65625 -22.875 28.65625 -17.484375 C 28.65625 -12.171875 25.265625 -8.375 20.140625 -8.375 Z M 20.140625 -8.375 "/></g></g></g><g fill="#d15a11" fill-opacity="1"><g transform="translate(185.204253, 225.56731)"><g><path d="M 13.15625 1 C 18.875 1 23.34375 -1.796875 25.53125 -5.84375 L 25.59375 -5.84375 L 25.734375 -4.65625 C 26.1875 -1.53125 29.390625 1 33.515625 1 C 36.640625 1 40.15625 -0.0625 42.21875 -2.125 L 39.828125 -7.515625 C 39.09375 -6.578125 38.03125 -5.984375 37.171875 -5.984375 C 36.09375 -5.984375 35.4375 -6.921875 35.4375 -8.4375 L 35.4375 -21.609375 C 35.4375 -30.125 28.984375 -35.375 19.015625 -35.375 C 9.234375 -35.375 2.65625 -30.25 2.0625 -23.203125 L 11.96875 -21.671875 C 12.296875 -25.0625 15.15625 -27.984375 19.28125 -27.984375 C 22.9375 -27.984375 25.46875 -26.0625 25.46875 -23.140625 C 25.46875 -21.734375 24.40625 -20.8125 22.796875 -20.671875 L 16.21875 -19.875 C 6.046875 -18.8125 1 -14.5625 1 -8.703125 C 1 -2.859375 6.046875 1 13.15625 1 Z M 17.015625 -5.984375 C 13.625 -5.984375 11.171875 -7.578125 11.171875 -9.90625 C 11.171875 -12.09375 13.09375 -13.890625 18.75 -14.5625 L 25.265625 -15.296875 L 25.265625 -13.890625 C 25.265625 -9.3125 21.8125 -5.984375 17.015625 -5.984375 Z M 17.015625 -5.984375 "/></g></g></g><g fill="#d15a11" fill-opacity="1"><g transform="translate(225.949271, 225.56731)"><g><path d="M 24.9375 -35.03125 C 19.546875 -35.03125 15.296875 -32.4375 12.828125 -27.859375 L 12.765625 -27.859375 L 11.234375 -34.046875 L 2.65625 -34.046875 L 2.65625 0 L 12.828125 0 L 12.828125 -18.8125 C 12.828125 -23.46875 15.890625 -26.59375 20.28125 -26.59375 C 23.796875 -26.59375 26 -24.203125 26 -20.34375 L 26 0 L 36.171875 0 L 36.171875 -23.46875 C 36.171875 -30.71875 31.90625 -35.03125 24.9375 -35.03125 Z M 24.9375 -35.03125 "/></g></g></g><g fill="#d15a11" fill-opacity="1"><g transform="translate(263.104987, 225.56731)"><g><path d="M 7.984375 -38.6875 C 11.5625 -38.6875 14.03125 -41.015625 14.03125 -44.484375 C 14.03125 -48 11.5625 -50.328125 7.984375 -50.328125 C 4.390625 -50.328125 2 -48 2 -44.484375 C 2 -41.015625 4.390625 -38.6875 7.984375 -38.6875 Z M 2.921875 0 L 13.03125 0 L 13.03125 -34.046875 L 2.921875 -34.046875 Z M 2.921875 0 "/></g></g></g><g fill="#d15a11" fill-opacity="1"><g transform="translate(277.6613, 225.56731)"><g><path d="M 19.875 1.328125 C 29.578125 1.328125 36.90625 -4.65625 37.828125 -13.4375 L 28.390625 -14.765625 C 27.859375 -10.109375 24.46875 -6.921875 20.21875 -6.921875 C 15.296875 -6.921875 11.703125 -10.96875 11.640625 -17.015625 C 11.640625 -23.0625 14.953125 -27.125 19.546875 -27.125 C 23 -27.125 26 -24.734375 26.734375 -20.28125 L 35.96875 -22.671875 C 34.5 -30.25 27.859375 -35.375 19.28125 -35.375 C 8.703125 -35.375 1.53125 -27.921875 1.53125 -17.015625 C 1.53125 -6.109375 8.90625 1.328125 19.875 1.328125 Z M 19.875 1.328125 "/></g></g></g><g fill="#39b54a" fill-opacity="1"><g transform="translate(241.127508, 245.091781)"><g><path d="M 0.625 0 L 2.59375 0 L 2.59375 -3.078125 L 5.546875 -3.078125 L 5.546875 -4.578125 L 2.59375 -4.578125 L 2.59375 -6.515625 L 6.234375 -6.515625 L 6.234375 -8.1875 L 0.625 -8.1875 Z M 0.625 0 "/></g></g></g><g fill="#39b54a" fill-opacity="1"><g transform="translate(250.671057, 245.091781)"><g><path d="M 4.875 0.28125 C 7.625 0.28125 9.421875 -1.453125 9.421875 -4.09375 C 9.421875 -6.734375 7.625 -8.46875 4.875 -8.46875 C 2.140625 -8.46875 0.34375 -6.734375 0.34375 -4.09375 C 0.34375 -1.453125 2.140625 0.28125 4.875 0.28125 Z M 4.875 -1.40625 C 3.328125 -1.40625 2.3125 -2.46875 2.3125 -4.09375 C 2.3125 -5.734375 3.328125 -6.796875 4.875 -6.796875 C 6.4375 -6.796875 7.453125 -5.734375 7.453125 -4.09375 C 7.453125 -2.46875 6.4375 -1.40625 4.875 -1.40625 Z M 4.875 -1.40625 "/></g></g></g><g fill="#39b54a" fill-opacity="1"><g transform="translate(263.536986, 245.091781)"><g><path d="M 4.875 0.28125 C 7.625 0.28125 9.421875 -1.453125 9.421875 -4.09375 C 9.421875 -6.734375 7.625 -8.46875 4.875 -8.46875 C 2.140625 -8.46875 0.34375 -6.734375 0.34375 -4.09375 C 0.34375 -1.453125 2.140625 0.28125 4.875 0.28125 Z M 4.875 -1.40625 C 3.328125 -1.40625 2.3125 -2.46875 2.3125 -4.09375 C 2.3125 -5.734375 3.328125 -6.796875 4.875 -6.796875 C 6.4375 -6.796875 7.453125 -5.734375 7.453125 -4.09375 C 7.453125 -2.46875 6.4375 -1.40625 4.875 -1.40625 Z M 4.875 -1.40625 "/></g></g></g><g fill="#39b54a" fill-opacity="1"><g transform="translate(276.402916, 245.091781)"><g><path d="M 0.625 0 L 4 0 C 6.84375 0 8.421875 -1.453125 8.421875 -4.09375 C 8.421875 -6.734375 6.84375 -8.1875 4 -8.1875 L 0.625 -8.1875 Z M 2.546875 -1.578125 L 2.546875 -6.625 L 4 -6.625 C 5.578125 -6.625 6.46875 -5.734375 6.46875 -4.09375 C 6.46875 -2.46875 5.578125 -1.578125 4 -1.578125 Z M 2.546875 -1.578125 "/></g></g></g><g fill="#39b54a" fill-opacity="1"><g transform="translate(288.280178, 245.091781)"><g><path d="M 3.984375 0.28125 C 6.078125 0.28125 7.5625 -0.75 7.5625 -2.46875 C 7.5625 -3.796875 6.703125 -4.546875 4.84375 -4.859375 L 3.6875 -5.078125 C 2.828125 -5.25 2.46875 -5.515625 2.46875 -6.015625 C 2.46875 -6.59375 2.96875 -7.03125 3.765625 -7.03125 C 4.5625 -7.03125 5.171875 -6.515625 5.28125 -5.734375 L 7.03125 -6.125 C 6.828125 -7.546875 5.515625 -8.46875 3.796875 -8.46875 C 1.890625 -8.46875 0.53125 -7.4375 0.53125 -5.828125 C 0.53125 -4.546875 1.328125 -3.8125 3.140625 -3.46875 L 4.28125 -3.25 C 5.25 -3.0625 5.640625 -2.765625 5.640625 -2.25 C 5.640625 -1.625 5.03125 -1.171875 4.0625 -1.171875 C 2.96875 -1.171875 2.15625 -1.8125 2.046875 -2.796875 L 0.25 -2.46875 C 0.4375 -0.6875 1.9375 0.28125 3.984375 0.28125 Z M 3.984375 0.28125 "/></g></g></g></svg>